<?xml version="1.0" encoding="UTF-8"?>
<svg width="281px" height="30px" viewBox="0 0 281 30" version="1.1" xmlns="http://www.w3.org/2000/svg" xmlns:xlink="http://www.w3.org/1999/xlink">
    <!-- Generator: Sketch 40.3 (33839) - http://www.bohemiancoding.com/sketch -->
    <title>Group 3</title>
    <desc>Created with Sketch.</desc>
    <defs></defs>
    <g id="Page-1" stroke="none" stroke-width="1" fill="none" fill-rule="evenodd">
        <g id="Artboard-Copy-8" transform="translate(-90.000000, -110.000000)">
            <g id="Group-3" transform="translate(91.000000, 111.000000)">
                <path d="M78.0625,1.75390625 C76.859369,3.93230256 75.9661487,6.0423075 75.3828125,8.08398438 C74.7994763,10.1256613 74.5078125,12.1673075 74.5078125,14.2089844 C74.5078125,16.232432 74.7994763,18.2717996 75.3828125,20.3271484 C75.9661487,22.3824973 76.859369,24.5038953 78.0625,26.6914062 L74.9453125,26.6914062 C73.4960865,24.585927 72.4205764,22.5101014 71.71875,20.4638672 C71.0169236,18.417633 70.6660156,16.3326929 70.6660156,14.2089844 C70.6660156,12.0943905 71.0192022,10.0094504 71.7255859,7.95410156 C72.4319697,5.89875274 73.5052011,3.83204164 74.9453125,1.75390625 L78.0625,1.75390625 Z M83.4628906,2.58789062 L88.2753906,2.58789062 L90.7089844,11.5429688 L93.1289062,2.58789062 L97.96875,2.58789062 L97.96875,23 L94.4960938,23 L94.4960938,6.6484375 L92.3359375,15.5761719 L89.1230469,15.5761719 L86.9355469,6.6484375 L86.9355469,23 L83.4628906,23 L83.4628906,2.58789062 Z M108.865234,24.6542969 C108.327471,26.0944082 107.682621,27.1448535 106.930664,27.8056641 C106.178707,28.4664747 105.264979,28.796875 104.189453,28.796875 L100.880859,28.796875 L100.880859,25.7480469 L102.507812,25.7480469 C103.328129,25.7480469 103.929686,25.6090509 104.3125,25.3310547 C104.695314,25.0530585 105.08268,24.4082082 105.474609,23.3964844 L105.775391,22.5761719 L99.9511719,7.6875 L104.162109,7.6875 L107.662109,17.6269531 L111.011719,7.6875 L115.222656,7.6875 L108.865234,24.6542969 Z M127.035156,13.3613281 C127.4362,13.4433598 127.784829,13.6324855 128.081055,13.9287109 C128.37728,14.2249364 128.739581,14.801428 129.167969,15.6582031 L132.859375,23 L128.429688,23 L125.96875,17.8457031 C125.895833,17.6998691 125.800131,17.4993502 125.681641,17.2441406 C124.961585,15.7037683 124.113937,14.9335938 123.138672,14.9335938 L121.853516,14.9335938 L121.853516,23 L117.820312,23 L117.820312,2.58789062 L123.644531,2.58789062 C126.269544,2.58789062 128.153966,3.05272973 129.297852,3.98242188 C130.441737,4.91211402 131.013672,6.42511973 131.013672,8.52148438 C131.013672,9.92513723 130.671878,11.0416625 129.988281,11.8710938 C129.304684,12.700525 128.320319,13.1972648 127.035156,13.3613281 L127.035156,13.3613281 Z M121.853516,5.97851562 L121.853516,11.5429688 L123.753906,11.5429688 C124.856776,11.5429688 125.647459,11.3264996 126.125977,10.8935547 C126.604495,10.4606098 126.84375,9.7474008 126.84375,8.75390625 C126.84375,7.7604117 126.606773,7.04948131 126.132812,6.62109375 C125.658852,6.19270619 124.865891,5.97851562 123.753906,5.97851562 L121.853516,5.97851562 Z M147.925781,22.2480469 C146.996089,22.6308613 146.048182,22.9179678 145.082031,23.109375 C144.115881,23.3007822 143.095057,23.3964844 142.019531,23.3964844 C139.458321,23.3964844 137.500983,22.7106188 136.147461,21.3388672 C134.793939,19.9671155 134.117188,17.9915494 134.117188,15.4121094 C134.117188,12.9147011 134.768874,10.9414135 136.072266,9.4921875 C137.375658,8.0429615 139.152984,7.31835938 141.404297,7.31835938 C143.673839,7.31835938 145.435215,7.99055317 146.688477,9.33496094 C147.941738,10.6793687 148.568359,12.5729045 148.568359,15.015625 L148.568359,16.6425781 L138.191406,16.6425781 C138.200521,17.8457091 138.555986,18.7434866 139.257812,19.3359375 C139.959639,19.9283884 141.007806,20.2246094 142.402344,20.2246094 C143.322921,20.2246094 144.229813,20.0924492 145.123047,19.828125 C146.016281,19.5638008 146.950516,19.1445341 147.925781,18.5703125 L147.925781,22.2480469 Z M144.535156,13.6347656 C144.516927,12.5774687 144.245771,11.777672 143.72168,11.2353516 C143.197589,10.6930311 142.425135,10.421875 141.404297,10.421875 C140.483719,10.421875 139.750003,10.7021456 139.203125,11.2626953 C138.656247,11.823245 138.332683,12.6184844 138.232422,13.6484375 L144.535156,13.6347656 Z M165.480469,7.6875 L160.613281,23 L155.677734,23 L150.810547,7.6875 L154.871094,7.6875 L158.138672,19.6367188 L161.419922,7.6875 L165.480469,7.6875 Z M169.595703,7.6875 L177.525391,7.6875 L177.525391,19.9238281 L182.501953,19.9238281 L182.501953,23 L168.529297,23 L168.529297,19.9238281 L173.519531,19.9238281 L173.519531,10.7636719 L169.595703,10.7636719 L169.595703,7.6875 Z M173.519531,0.236328125 L177.525391,0.236328125 L177.525391,4.91210938 L173.519531,4.91210938 L173.519531,0.236328125 Z M198.498047,22.2480469 C197.568355,22.6308613 196.620448,22.9179678 195.654297,23.109375 C194.688146,23.3007822 193.667323,23.3964844 192.591797,23.3964844 C190.030586,23.3964844 188.073249,22.7106188 186.719727,21.3388672 C185.366204,19.9671155 184.689453,17.9915494 184.689453,15.4121094 C184.689453,12.9147011 185.341139,10.9414135 186.644531,9.4921875 C187.947923,8.0429615 189.725249,7.31835938 191.976562,7.31835938 C194.246105,7.31835938 196.007481,7.99055317 197.260742,9.33496094 C198.514004,10.6793687 199.140625,12.5729045 199.140625,15.015625 L199.140625,16.6425781 L188.763672,16.6425781 C188.772787,17.8457091 189.128252,18.7434866 189.830078,19.3359375 C190.531905,19.9283884 191.580071,20.2246094 192.974609,20.2246094 C193.895187,20.2246094 194.802079,20.0924492 195.695312,19.828125 C196.588546,19.5638008 197.522782,19.1445341 198.498047,18.5703125 L198.498047,22.2480469 Z M195.107422,13.6347656 C195.089193,12.5774687 194.818036,11.777672 194.293945,11.2353516 C193.769854,10.6930311 192.997401,10.421875 191.976562,10.421875 C191.055985,10.421875 190.322268,10.7021456 189.775391,11.2626953 C189.228513,11.823245 188.904948,12.6184844 188.804688,13.6484375 L195.107422,13.6347656 Z M200.289062,7.6875 L203.625,7.6875 L205.443359,19.4179688 L207.097656,11.6933594 L210.337891,11.6933594 L211.964844,19.4179688 L213.810547,7.6875 L217.146484,7.6875 L214.371094,23 L210.570312,23 L208.710938,15.0429688 L206.865234,23 L203.064453,23 L200.289062,7.6875 Z M232.212891,22.2480469 C231.283198,22.6308613 230.335291,22.9179678 229.369141,23.109375 C228.40299,23.3007822 227.382167,23.3964844 226.306641,23.3964844 C223.74543,23.3964844 221.788093,22.7106188 220.43457,21.3388672 C219.081048,19.9671155 218.404297,17.9915494 218.404297,15.4121094 C218.404297,12.9147011 219.055983,10.9414135 220.359375,9.4921875 C221.662767,8.0429615 223.440093,7.31835938 225.691406,7.31835938 C227.960949,7.31835938 229.722324,7.99055317 230.975586,9.33496094 C232.228847,10.6793687 232.855469,12.5729045 232.855469,15.015625 L232.855469,16.6425781 L222.478516,16.6425781 C222.48763,17.8457091 222.843095,18.7434866 223.544922,19.3359375 C224.246748,19.9283884 225.294915,20.2246094 226.689453,20.2246094 C227.610031,20.2246094 228.516923,20.0924492 229.410156,19.828125 C230.30339,19.5638008 231.237625,19.1445341 232.212891,18.5703125 L232.212891,22.2480469 Z M228.822266,13.6347656 C228.804036,12.5774687 228.53288,11.777672 228.008789,11.2353516 C227.484698,10.6930311 226.712245,10.421875 225.691406,10.421875 C224.770829,10.421875 224.037112,10.7021456 223.490234,11.2626953 C222.943357,11.823245 222.619792,12.6184844 222.519531,13.6484375 L228.822266,13.6347656 Z M249.740234,11.9121094 C249.302732,11.5110657 248.790042,11.2102875 248.202148,11.0097656 C247.614255,10.8092438 246.969405,10.7089844 246.267578,10.7089844 C245.419918,10.7089844 244.679365,10.8570949 244.045898,11.1533203 C243.412432,11.4495458 242.922528,11.8802055 242.576172,12.4453125 C242.357421,12.7916684 242.204753,13.210935 242.118164,13.703125 C242.031575,14.195315 241.988281,14.9427033 241.988281,15.9453125 L241.988281,23 L237.982422,23 L237.982422,7.6875 L241.988281,7.6875 L241.988281,10.0664062 C242.38021,9.19140187 242.981767,8.51465083 243.792969,8.03613281 C244.604171,7.55761479 245.552078,7.31835938 246.636719,7.31835938 C247.183596,7.31835938 247.719073,7.38443944 248.243164,7.51660156 C248.767255,7.64876368 249.266274,7.84244664 249.740234,8.09765625 L249.740234,11.9121094 Z M264.410156,8.16601562 L264.410156,11.6660156 C263.671871,11.1920549 262.903975,10.8343111 262.106445,10.5927734 C261.308915,10.3512358 260.509119,10.2304688 259.707031,10.2304688 C258.813798,10.2304688 258.139325,10.3603503 257.683594,10.6201172 C257.227862,10.8798841 257,11.2649714 257,11.7753906 C257,12.5045609 257.975251,13.0970029 259.925781,13.5527344 L260.076172,13.59375 L261.224609,13.8671875 C262.68295,14.2135434 263.751624,14.771806 264.430664,15.5419922 C265.109704,16.3121783 265.449219,17.3535091 265.449219,18.6660156 C265.449219,20.2428464 264.931971,21.4254518 263.897461,22.2138672 C262.862951,23.0022826 261.306651,23.3964844 259.228516,23.3964844 C258.307938,23.3964844 257.364588,23.3167326 256.398438,23.1572266 C255.432287,22.9977206 254.452479,22.7584651 253.458984,22.4394531 L253.458984,18.9394531 C254.343103,19.4407577 255.243159,19.8235664 256.15918,20.0878906 C257.0752,20.3522149 257.961584,20.484375 258.818359,20.484375 C259.757166,20.484375 260.468097,20.3476576 260.951172,20.0742188 C261.434247,19.8007799 261.675781,19.4042995 261.675781,18.8847656 C261.675781,18.3743464 261.504885,17.9824232 261.163086,17.7089844 C260.821287,17.4355455 260.007819,17.1438818 258.722656,16.8339844 L257.615234,16.5878906 C256.083977,16.2415347 254.967451,15.6992224 254.265625,14.9609375 C253.563799,14.2226526 253.212891,13.2337302 253.212891,11.9941406 C253.212891,10.5175707 253.746088,9.36914473 254.8125,8.54882812 C255.878912,7.72851152 257.378246,7.31835938 259.310547,7.31835938 C260.176437,7.31835938 261.040035,7.38899669 261.901367,7.53027344 C262.7627,7.67155019 263.598954,7.88346213 264.410156,8.16601562 L264.410156,8.16601562 Z M271.943359,1.75390625 L275.060547,1.75390625 C276.500658,3.83204164 277.57389,5.89875274 278.280273,7.95410156 C278.986657,10.0094504 279.339844,12.0943905 279.339844,14.2089844 C279.339844,16.3326929 278.988936,18.417633 278.287109,20.4638672 C277.585283,22.5101014 276.509773,24.585927 275.060547,26.6914062 L271.943359,26.6914062 C273.14649,24.5038953 274.039711,22.3824973 274.623047,20.3271484 C275.206383,18.2717996 275.498047,16.232432 275.498047,14.2089844 C275.498047,12.1673075 275.206383,10.1256613 274.623047,8.08398438 C274.039711,6.0423075 273.14649,3.93230256 271.943359,1.75390625 L271.943359,1.75390625 Z" id="find(MyReviewers)" fill="#000000"></path>
                <path d="M59.3867188,9.86132812 L59.3867188,1.7265625 L63.3789062,1.7265625 L63.3789062,23 L59.3867188,23 L59.3867188,20.7304688 C58.9583312,21.6145878 58.4046258,22.2799457 57.7255859,22.7265625 C57.0465461,23.1731793 56.2467494,23.3964844 55.3261719,23.3964844 C53.5761631,23.3964844 52.2181038,22.6946685 51.2519531,21.2910156 C50.2858025,19.8873628 49.8027344,17.909518 49.8027344,15.3574219 C49.8027344,12.7688673 50.2926383,10.781908 51.2724609,9.39648438 C52.2522835,8.01106078 53.6490795,7.31835938 55.4628906,7.31835938 C56.2832072,7.31835938 57.0192025,7.53027132 57.6708984,7.95410156 C58.3225944,8.37793181 58.8945288,9.01366764 59.3867188,9.86132812 Z M53.8085938,15.3847656 C53.8085938,16.8613355 54.054685,18.018876 54.546875,18.8574219 C55.039065,19.6959677 55.7180946,20.1152344 56.5839844,20.1152344 C57.4498741,20.1152344 58.133461,19.6959677 58.6347656,18.8574219 C59.1360702,18.018876 59.3867188,16.8613355 59.3867188,15.3847656 C59.3867188,13.9081957 59.1360702,12.7506552 58.6347656,11.9121094 C58.133461,11.0735635 57.4498741,10.6542969 56.5839844,10.6542969 C55.7180946,10.6542969 55.039065,11.0735635 54.546875,11.9121094 C54.054685,12.7506552 53.8085938,13.9081957 53.8085938,15.3847656 Z" id="Combined-Shape" stroke="#000000" stroke-width="1.5"></path>
                <path d="M46.3574219,13.0605469 L46.3574219,23 L42.3789062,23 L42.3789062,13.6757812 C42.3789062,12.5637965 42.2216813,11.7685571 41.9072266,11.2900391 C41.5927719,10.811521 41.0800817,10.5722656 40.3691406,10.5722656 C39.6490849,10.5722656 39.0817078,10.8958301 38.6669922,11.5429688 C38.2522766,12.1901074 38.0449219,13.0878849 38.0449219,14.2363281 L38.0449219,23 L34.0664062,23 L34.0664062,7.6875 L38.0449219,7.6875 L38.0449219,9.984375 C38.3274754,9.13671451 38.8105435,8.48047107 39.4941406,8.015625 C40.1777378,7.55077893 41.0025993,7.31835938 41.96875,7.31835938 C43.417976,7.31835938 44.5117151,7.79914884 45.25,8.76074219 C45.9882849,9.72233554 46.3574219,11.1555894 46.3574219,13.0605469 L46.3574219,13.0605469 Z" id="Path" stroke="#000000" stroke-width="1.5"></path>
                <polygon id="Path" stroke="#000000" stroke-width="1.5" points="21.8027344 0.236328125 25.8085938 0.236328125 25.8085938 4.91210938 21.8027344 4.91210938"></polygon>
                <polygon id="Path" stroke="#000000" stroke-width="1.5" points="17.8789062 7.6875 25.8085938 7.6875 25.8085938 19.9238281 30.7851562 19.9238281 30.7851562 23 16.8125 23 16.8125 19.9238281 21.8027344 19.9238281 21.8027344 10.7636719 17.8789062 10.7636719"></polygon>
                <path d="M8.10351562,6.34765625 L8.10351562,7.6875 L12.8066406,7.6875 L12.8066406,10.7636719 L8.10351562,10.7636719 L8.10351562,23 L4.09765625,23 L4.09765625,10.7636719 L0.37890625,10.7636719 L0.37890625,7.6875 L4.09765625,7.6875 L4.09765625,6.62109375 C4.09765625,4.77993871 4.48046492,3.5039098 5.24609375,2.79296875 C6.01172258,2.0820277 7.43358336,1.7265625 9.51171875,1.7265625 L12.8066406,1.7265625 L12.8066406,4.80273438 L9.67578125,4.80273438 C9.07421574,4.80273438 8.66634222,4.91210828 8.45214844,5.13085938 C8.23795466,5.34961047 8.12174488,5.75520537 8.10351562,6.34765625 L8.10351562,6.34765625 Z" id="Path" stroke="#000000" stroke-width="1.5"></path>
            </g>
        </g>
    </g>
</svg>