<?xml version="1.0" encoding="UTF-8"?>
<svg width="68px" height="78px" viewBox="0 0 68 78" version="1.1" xmlns="http://www.w3.org/2000/svg" xmlns:xlink="http://www.w3.org/1999/xlink">
    <!-- Generator: Sketch 40.3 (33839) - http://www.bohemiancoding.com/sketch -->
    <title>pdf-5</title>
    <desc>Created with Sketch.</desc>
    <defs></defs>
    <g id="Page-1" stroke="none" stroke-width="1" fill="none" fill-rule="evenodd">
        <g id="40-Document-Type-Icons" transform="translate(-693.000000, -631.000000)">
            <g id="pdf-5" transform="translate(693.250000, 631.000000)">
                <path d="M4.9145,0 L45.972,0 L67.73425,21.67775 L67.73425,72.4845 C67.73425,75.15425 65.5695,77.31675 62.902,77.31675 L4.9145,77.31675 C2.247,77.31675 0.08225,75.15425 0.08225,72.4845 L0.08225,4.83225 C0.08225,2.1625 2.24725,0 4.9145,0 Z M49.6085,36.636 C50.418,36.636 50.81425,35.9305 50.81425,35.24675 C50.81425,34.53875 50.401,33.855 49.6085,33.855 L44.9985,33.855 C44.09725,33.855 43.59475,34.6015 43.59475,35.4255 L43.59475,46.75475 C43.59475,47.76475 44.16975,48.32525 44.94775,48.32525 C45.721,48.32525 46.2985,47.76475 46.2985,46.75475 L46.2985,43.64525 L49.08675,43.64525 C49.95175,43.64525 50.38425,42.93725 50.38425,42.23425 C50.38425,41.54575 49.95175,40.86175 49.08675,40.86175 L46.2985,40.86175 L46.2985,36.636 C46.2985,36.636 49.6085,36.636 49.6085,36.636 Z M34.02675,33.855 L30.65375,33.855 C29.738,33.855 29.088,34.48325 29.088,35.41575 L29.088,46.7645 C29.088,47.92175 30.023,48.28425 30.69225,48.28425 L34.232,48.28425 C38.4215,48.28425 41.188,45.5275 41.188,41.2725 C41.18575,36.77375 38.58125,33.855 34.02675,33.855 Z M34.18875,45.4865 L32.1325,45.4865 L32.1325,36.653 L33.98575,36.653 C36.791,36.653 38.011,38.53525 38.011,41.1325 C38.011,43.56325 36.8125,45.4865 34.18875,45.4865 Z M21.8325,33.855 L18.491,33.855 C17.54625,33.855 17.0195,34.47825 17.0195,35.4255 L17.0195,46.75475 C17.0195,47.76475 17.6235,48.32525 18.43525,48.32525 C19.247,48.32525 19.851,47.76475 19.851,46.75475 L19.851,43.447 L21.94575,43.447 C24.531,43.447 26.6645,41.6155 26.6645,38.67025 C26.66475,35.788 24.60625,33.855 21.8325,33.855 Z M21.777,40.7895 L19.85125,40.7895 L19.85125,36.51525 L21.777,36.51525 C22.96575,36.51525 23.722,37.443 23.722,38.6535 C23.7195,39.86175 22.96575,40.7895 21.777,40.7895 Z" id="Combined-Shape" fill="#FFFFFF"></path>
                <path d="M67.6645,21.74525 L50.8215,21.74525 C48.154,21.74525 45.98925,19.5805 45.98925,16.913 L45.98925,0.04825 L67.6645,21.74525 L67.6645,21.74525 Z" id="Shape" fill-opacity="0.2" fill="#9B9B9B"></path>
            </g>
        </g>
    </g>
</svg>