<svg xmlns="http://www.w3.org/2000/svg" xml:space="preserve" height="167.5" viewBox="0 0 399.9 167.5" width="399.9" version="1.1"><defs><clipPath clipPathUnits="userSpaceOnUse"><path d="m0 0h612v792h-612v-792z"/></clipPath><clipPath clipPathUnits="userSpaceOnUse"><path d="m0.1 270.9h610.6v248.7h-610.6v-248.6z"/></clipPath></defs><g transform="matrix(1.25 0 0 -1.25 -171.1 577.79)"><g fill="#00539f" transform="matrix(.53903 0 0 .53903 136.83 182.18)"><g clip-path="url(#b)" fill="#00539f"><path d="m362.7 434.4c4.4-1.9 9.1-3 14.5-3 10.2 0 20.5 6.2 20.5 17.5 0 7.8-2.9 12.6-11.9 20.1-8.5 7.1-14.4 11-14.4 17.6 0 7 4.4 9.8 9.3 9.8 6.8 0 10-5.3 10.7-11.9h2.2v12.4c0 0.5-0.1 0.9-0.6 1-3.4 1.3-8.2 1.8-11.9 1.8-9.8 0-18.3-6.7-18.3-15.2 0-10.3 5.7-14 10.3-17.4 12.7-9.3 15.7-14.3 15.7-20.5 0-6.9-4.9-12-11-12-6.5 0-12.7 4.1-13.7 14.6h-2.2v-13.6c0-0.8 0.3-1.1 0.6-1.3M422.3 435c-7.6 1-7.3 0.6-7.3 9.3v42.4c0 8.8-0.3 8.3 7.3 9.3v2.5h-22.8v-2.5c7.6-1 7.3-0.6 7.3-9.3v-42.4c0-8.8 0.3-8.3-7.3-9.3v-2.5h22.8v2.5M422.8 484.1c2.8 6.2 4.5 11.4 11.9 11.4h7.6v-51.2c0-8.8 0.3-8.3-7.3-9.3v-2.5h22.8v2.5c-7.6 1-7.3 0.6-7.3 9.3v51.2h7.6c7.4 0 9.1-5.2 11.9-11.4h2.1l-2.3 14.4h-46.9l-2.3-14.4h2.1M481 487.6l13.1-28.8v-14.5c0-8.8 0.3-8.3-7.3-9.3v-2.5h22.8v2.5c-7.6 1-7.3 0.6-7.3 9.3v10.6c0 2.4 0.2 5 1 6.9l14.2 28.6c2.3 4.5 4.6 5.8 7 5.8v2.5h-17.5v-2.5c5 0 7.7-2.7 4.8-8.5l-11.7-23.7-10.3 23.7c-2.1 4.9-2.7 8.5 3.7 8.5v2.5h-21.6v-2.5c3.9 0 6.3-2.4 9.1-8.5M548 474.4c6.8 0 14-6 14-20.8 0-8.3-2.9-19.7-13.2-19.7-7.2 0-14.1 7.7-14.1 22.6 0 8.4 3.9 17.8 13.4 17.8zm-0.8-42.6c12.3 0 21.1 10.6 21.1 23.7 0 9.5-7 21.1-19.1 21.1-11.6 0-20.9-9.8-20.9-23.2 0-12 8.3-21.6 18.9-21.6M568.8 475.8v-1.6c5-0.7 4.8-0.4 4.8-6.1v-27.8c0-5.8 0.2-5.4-4.8-6.1v-1.6h15v1.6c-5 0.7-4.8 0.4-4.8 6.1v12.7h5.3c3.7 0 5-2.2 5.1-5.9h1.4v13.2h-1.4c-0.1-3.8-1.6-5.4-5.1-5.4h-5.3v18.9h7.6c4 0 5-3.4 5.7-8h1.4v10h-24.9M246.7 352.9c-5-12.9-4.2-17.9-20-17.9-9.8 0-14 0.8-14 11.1v27.3h9.1c7.3 0 9.8-4.2 10-11.3h2.8v25.7h-2.8c-0.2-7.5-3.1-10.5-10-10.5h-9.1v34.5h14.8c7.8 0 10-6.6 11.1-15.6h2.8v19.4h-48.5v-3.1c9.8-1.3 9.3-0.7 9.3-11.9v-54.3c0-11.2 0.4-10.6-9.3-11.9v-3.1h53.4l3.3 21.7h-2.8M294.5 363.8l12.9 39.2h0.2l11.5-39.2h-24.6zm41.5-18.8c-3.7 10.7-14.8 47.9-22.1 72.1h-6.1c-9-26.7-21.7-66.1-26.4-76.7-1.1-2.4-2.7-4.1-4.4-5.1-5.7 0.5-8.3 2.5-8.3 9.1v56.2c0 11.2-0.4 10.6 9.3 11.9v3.1h-29.2v-3.1c9.8-1.3 9.3-0.7 9.3-11.9v-54.3c0-11.2 0.4-10.6-9.3-11.9v-3.1h53.3l3.3 21.7h-2.7c-4.1-10.6-4.4-15.9-13.2-17.4-1.9 1.5-2.5 4.3-1.6 7.5l5 16.2h27.7l4.7-15.6c1.7-5.3 1.1-9.3-5.8-9.3v-3.1h25.3v3.1c-4.7 0-6.4 3.9-8.8 10.6M437.6 412.5v3.1h-23.9v-3.1c8.8-0.1 10.6-3.7 8.6-11.2-4.8-17.1-9.3-34.3-14.2-51.1h-0.2l-21.5 64.4h-4.1l-21.8-65.3h-0.2l-12.9 51.9c-2.2 8.2 0.3 11.3 7.2 11.3v3.1h-28.4v-3.1c5.8 0 9.3-4.9 12.4-16.8l16.4-64.5h4.7l21.7 65.5 21.8-65.5h5l20.2 71.9c1.8 6.6 6.2 9.4 9.4 9.4"/></g><g clip-path="url(#a)" fill="#00539f"><path d="m507.5 372.5h-9v39.3h8.4c7.9 0 14.4-4.6 14.4-17.7 0-13.6-4.3-21.6-13.8-21.6zm-69.8-8.7 12.9 39.2h0.2l11.5-39.2h-24.6zm132.4-28.7c-9.8 0-14 0.8-14 11.1v27.3h9.1c7.3 0 9.8-4.2 10-11.3h2.8v25.7h-2.8c-0.2-7.5-3.1-10.5-10-10.5h-9.1v34.5h14.8c7.8 0 10-6.6 11.1-15.6h2.8v19.4h-48.5v-3.1c9.8-1.3 9.3-0.7 9.3-11.9v-54.3c0-9.3 0.3-10.5-5.2-11.4-3.7 3.7-8.5 10.6-12.8 17.6l-10.6 18c8.4 3.6 15.2 12.2 15.2 24.6 0 14.1-11 20.5-21.9 20.5h-31.6v-3.1c9.8-1.3 9.3-0.7 9.3-11.9v-54.3c0-8.1 0.2-10-3.4-11-2.3 1.5-3.7 4.9-5.4 9.7-3.7 10.7-14.8 47.9-22.1 72.1h-6.1c-9-26.7-21.7-66.1-26.4-76.7-1.7-4-4.9-6-7.8-6v-3.1h19.8v3.1c-4.8 0-6.8 4-5.4 8.7l5 16.2h27.7l4.7-15.6c1.7-5.3 1.1-9.3-5.8-9.3v-3.1h45.1v3.1c-9.8 1.3-9.3 0.7-9.3 11.9v22.3h10.2c13.1-24.2 16.6-37.4 23-37.4h58l3.3 21.7h-2.8c-5-12.9-4.2-17.9-20-17.9M106.9 278.9c-20.2 0-25.6 0.3-25.6 27.6v56.1c20.1 5.3 38.1 24.3 38.1 64.1v10.1c31-6.3 47.3-32.4 47.3-73.7 0-63.1-26.2-84.2-59.8-84.2zm-2.8 159.3c1.9 0 3.7-0.1 5.5-0.2v-10.5c0-30-9.7-49.3-28.2-54.6v65.3h22.8zm221.6 57.3h6.5c6.2 0 11.3-3.6 11.3-13.9 0-10.7-3.4-16.9-10.8-16.9h-7v30.8zm-182.8-53.5c-0.1 1.3-0.1 2.6-0.1 3.2v41.7c13.8-18.1 27.8-36.7 41.3-54.4h2.9v53.3c0 2 0.3 3.6 0.5 5.1 0.4 3.3 3.2 4.7 7.1 5.2 7.3-1 7-0.6 7-9.3v-42.4c0-8.8 0.3-8.3-7.3-9.3v-2.5h22.8v2.5c-7.6 1-7.3 0.6-7.3 9.3v42.4c0 7.9-0.3 8.3 5.3 9.1 3-0.9 5.3-4.3 7.9-12.7 5.2-16 11-34.2 16.1-50.6h4.3c7.1 19.3 14.3 38.6 21.5 57.9 1.3 3.5 3.2 4.9 5 5.4 5.7-0.8 5.4-1.1 5.4-9.1v-42.4c0-8.8 0.3-8.3-7.3-9.3v-2.5h41.8l0.3 1.7v-1.7h22.8v2.5c-7.6 1-7.3 0.6-7.3 9.3v17.5h8c10.3-19 13-29.2 18-29.2h8.7v1.2c-3 2-7.7 8.6-12 15.5l-8.3 14.1c6.5 2.8 11.9 9.5 11.9 19.2 0 11-8.6 16-17.1 16h-24.7v-2.5c7.6-1 7.3-0.6 7.3-9.3v-42.4c0-8.7 0.3-8.3-7.2-9.3l2.2 14.5h-2.2c-3.9-10.1-3.3-14-15.6-14-7.6 0-11 0.7-11 8.7v21.3h7.1c5.7 0 7.6-3.3 7.8-8.9h2.2v20.1h-2.2c-0.2-5.8-2.5-8.2-7.8-8.2h-7.1v27h11.5c6.1 0 7.8-5.2 8.7-12.2h2.2v15.2h-52.4v-2.5c5.8 0 8-2.9 5.9-8.9-5.3-14.4-10.4-29-15.9-43.4-4.4 14.3-9.3 30.6-12.6 41.7-2.8 9.1 0.6 10.6 5.3 10.6v2.5h-62.3v-2.5c5.6-0.5 8.5-1.8 8.9-5.2 0.2-1.5 0.5-3.1 0.5-5.1v-38.8h-0.2c-12.6 17.1-25.8 34.4-38.5 51.5h-15.4v-2.5c4.8 0 7.5-3 9.8-6.4v-44.4c0-0.5 0-1.3-0.1-2.1-6.1 1.6-12.7 2.6-19.8 3v43.4c0 4.7 0.8 8.5 1.1 12 0.9 8 7.2 11.1 16.3 12.2v5.8h-44.7v-5.8c8.9-1.1 15.3-4.2 16.3-12.2 0.4-3.6 1.1-7.3 1.1-12v-43.2h-67.2v-6.5c19.2-2.8 18.3-1.5 18.3-24.8v-42.4c-20.5 4.9-26 26.6-26 54v65.2c0 20.7-0.8 19.6 16.3 22v5.8h-50.9v-5.8c17-2.4 16.3-1.3 16.3-22v-66.4c0-37.4 10.7-60.7 44.4-64v-59.2c0-23.3 0.9-22-18.3-24.8v-6.5h64.5c52.8 0 84.1 42.6 84.1 92.7 0 40.5-16.2 68.3-48.1 78.4"/></g></g></g></svg>